<?xml version="1.0" encoding="UTF-8"?><svg id="Layer_2" xmlns="http://www.w3.org/2000/svg" viewBox="0 0 457.67 414.82"><defs><style>.cls-1{fill:#f5f6f7;}.cls-2{fill:#192225;}.cls-3{fill:#dfdfde;}.cls-4{fill:#ce5555;}.cls-5,.cls-6{fill:#8e1f21;}.cls-7{fill:#d6d6d6;}.cls-8{fill:#1a2126;}.cls-9{fill:#1c2326;}.cls-10{fill:#271214;}.cls-11{fill:#dfdedd;}.cls-12{fill:#f5f5f6;}.cls-6,.cls-13{stroke:#fff;stroke-miterlimit:10;}.cls-14{fill:#282d2e;}.cls-15{fill:#e1e1e0;}.cls-16{fill:#dad9d9;}.cls-17{fill:#652222;}.cls-18{fill:#8d1d1f;}.cls-19{fill:#852421;}.cls-20{fill:#931f21;}.cls-21{fill:#1e2628;}.cls-22{fill:#8d1d20;}.cls-23{fill:#6f777a;}.cls-24{fill:#e2e2e1;}.cls-25{fill:#f1f2f4;}.cls-26{fill:#211317;}.cls-27{fill:#e3e2e2;}.cls-28{fill:#908e8c;}.cls-29,.cls-13{fill:#141b1e;}.cls-30{fill:#1b1a1c;}.cls-31{fill:#182023;}.cls-32{fill:#ebdddc;}.cls-33{fill:#dcdbdb;}.cls-34{fill:#192124;}.cls-35{fill:#d3d2d2;}.cls-36{fill:#e8e7e6;}.cls-37{fill:#c07171;}.cls-38{fill:#e0e0df;}.cls-39{fill:#20272c;}.cls-40{fill:#d4d5d5;}.cls-41{fill:#8d2022;}</style></defs><g id="Layer_1-2"><g id="Generative_Object"><path class="cls-29" d="M145.72,113.45c-3.37.1-15.57,5.55-19.21,7.29-.98.47-4.7.74-5.3,2.32-.8,2.1,0,10.65-.66,13.25-.81,3.17-3.89,4.98-3.97,5.3-1.45,5.26-.02,10.35-3.97,15.9-2.5,3.51-6.78,4.34-8.94,6.29-5.9,5.3-11.85,10.71-17.55,16.23.69,1.37,23.57-11.34,25.5-12.92,4.55-3.7,9.5-12.96,11.92-14.57,3.75-2.49,20.67-4.85,26.16-5.96,8.09-1.63,16.39-3.08,24.51-4.64,8.6-1.65,17.22-2.86,25.83-4.64,8.62-1.78,17.88-.12,22.52-8.61l112.27-18.55c15.28-26.44,52.54-40.54,80.14-24.51,18.51,10.75,7.69,27.51.33,42.06,15.65-2.47,33.8-8.3,40.4,11.26,5.71,16.92-1.92,35.75-11.26,49.68-1.69,2.52-8.63,8.47-9.27,9.94-.8,1.82-4.99,31.83-3.64,32.79,4.72-.5,11.82,1.94,14.9,5.63,9.81,11.77-5.4,54.62-5.3,70.21-.73,1.48-1.53,1.78-2.98,2.32-3.3,1.23-28.01,2.43-28.81,3.64,7.32,3.69,21.96,22.49,19.21,30.47-.97,2.81-12.16,3.5-8.61,7.95,2.06,2.58,10.68.61,11.92,3.97.39,1.06.33,20.8,0,22.52-1.91,9.88-15.99,9.02-23.51,8.28-3.06-.3-12.56-4.03-13.25-3.97-.5.04-5.75,4.77-8.61,5.3-13.21,2.46-16.5-4.96-24.51-6.62-3.03-.63-57.36,4.73-61.6,5.96-4.72,1.37-1.97,7.96-5.3,11.26l-148.37,16.56-2.32-1.66,4.31-30.8-54.98-8.61,7.95-4.64-42.06-3.64,61.27-14.24-88.09,9.94,9.6-69.22-42.39,3.31,16.56-107.96c.96-1.6,31.8-6.23,36.43-6.95,4.99-.78,13.15-.07,18.88-1.99,2.44-1.06,2.98-4.43,3.64-5.3,5.53-7.21,9.05-15.13,16.23-21.2,1.31-1.11,6.65-2.92,6.95-3.64.51-1.22-.82-24.71-1.32-26.49-.43-1.54-3.88-4.9-4.64-7.29-1.45-4.54-2.65-17.25-1.99-21.86.11-.73,3.05-1.83,2.65-3.97-.13-.69-8.68-8.73-10.27-9.6-2.1.06-18.79,21.07-20.2,24.18-1.72,3.78.4,9.44-4.97,12.25-6.47,3.39-13.08-1.88-10.27-8.94.98-2.45,6.28-5.39,7.95-7.95,7.91-12.1,5.57-16.03,18.55-28.15,4.49-4.19,10.51-9.51,14.57-13.25,5.24-4.82,11.16-6.44,18.21-5.96,1.65-.73-2.02-13.5,5.96-19.87,14.14-11.28,29.23,8.71,21.86,16.56-.63.67-3.25.48-3.64.99-.86,1.13,2.71,3.77,2.65,4.64-.03.44-2.17,1.44-1.99,2.65.62,4.14,17.74,9.1,22.19,8.94.96-.04,15.16-2.97,15.9-3.31.41-.19,3.99-4.93,5.96-5.3,6.87-1.28,10.16,10.23,3.97,13.91-1.07.63-21.29,7.79-22.52,7.95-6.06.78-19.19-2.12-25.83-2.65-1.95.58-5.56,17.73-5.63,20.86.42.58,12.17.57,14.24.99,5.17,1.06,13.05,5.82,17.22,6.62,4.56.88,15.29-.48,20.53.66,4.98-1.63,14.66-17.93,17.88-17.22,9.01,1.99-3.08,22.81-4.97,26.83-1.46,3.11.53,10.71-6.95,7.62-3.21-1.33-3.66-5.75-3.97-5.96-.92-.61-17.98,3.1-21.86,2.65-6.1-.71-6.09-5.49-12.25-5.3Z"/><path class="cls-6" d="M139.43,183c.83-.01,3.17-.28,3.64.33l-21.86,40.4,11.26,44.38c-.38.96-17.65,3.78-19.21,1.99-1.33-1.54-7.35-31.82-8.94-31.46-3.35,4.65-5.82,32-7.62,34.11-1.2,1.41-15.01,1.68-17.55,2.98l11.59-85.11c1.32-2.27,15.61-3.29,19.21-3.31l-5.63,35.44,20.86-36.76c1.2-.95,12.43-2.96,14.24-2.98Z"/><path class="cls-6" d="M283.82,162.47c.99-.06,4.77-.62,4.97.99l-21.86,40.4,10.6,45.04c-.61,1.84-16.42,3.03-19.21,3.31l-8.94-33.45-6.95,34.77-17.55,2.98,12.25-86.44,17.22-2.65-4.31,36.1,20.86-38.09c1.27-1.1,10.93-2.85,12.92-2.98Z"/><path class="cls-6" d="M206.99,172.4c8.86-.67,19.27,1.64,20.2,12.25.11,1.21-1.52,14-1.99,14.57-.52.63-15.56,2.79-16.23,2.32,1.99-8.83-4.34-19.5-11.59-9.6-2.5,3.41-9.79,48.49-8.61,52.33,1.07,3.49,6.92,3.73,9.6,2.32,5.78-3.04,4.56-14.31,6.62-15.9.6-.46,14.48-2.28,14.9-1.66-.32,13.07-5.64,26.3-18.88,30.8-8.48,2.88-28.44,4.44-30.8-7.62-1.4-7.17,6.97-57.35,10.6-64.25,4.66-8.85,16.45-14.83,26.16-15.57Z"/><path class="cls-6" d="M331.51,155.84c1.17,0,2.63-.26,3.64.33.44.62-1,14.54-1.32,15.23-1.13,2.36-21.61,2.58-22.52,4.64-.36.82-2.51,17.15-1.99,17.88l17.22-.66c-1.48,2.34-1.5,13.69-2.98,14.9s-15.17.94-16.89,3.64c-.5.78-3.09,17.71-2.32,18.21l21.2-2.65c.76.63-1.14,15.6-1.66,16.23-1.26,1.54-34.76,4.57-39.41,5.63l10.93-87.1c.89-1.61,32.76-6.3,36.1-6.29Z"/><path class="cls-24" d="M431.52,243.27c.59.1,1.26-.28,1.66.33-4.84,18.45-9.97,37.9-16.89,55.31l-13.58.99.33-28.81c-3.14,5.14-5.7,26.04-8.28,29.47-1.62,2.15-11.44,1.87-14.24,2.98l.99-53.32c.55-1.25,11.41-2.9,11.92-1.32l-1.66,32.79c1.66-4,10.22-34.37,11.92-35.1.45-.2,9.27-.8,9.6-.33l.33,28.81c3.2-5.21,5.9-26.02,8.94-29.47.87-.99,8.25-2.43,8.94-2.32Z"/><path class="cls-6" d="M426.23,137.96c26.19-2.32,19.35,23.94,10.93,38.75-2.89,5.08-11.78,12.23-13.25,15.23-5.11,10.45,3.68,16.06-16.89,15.57-.8-.46,2.36-16.59,2.98-18.21,3.87-10.15,16.11-13.94,17.22-25.83.53-5.72.18-13.08-7.62-9.6-5.33,2.37-3.82,11.96-5.63,14.24-1.41,1.78-11.89,1.93-14.57,2.65.97-15.45,9.96-31.29,26.83-32.79Z"/><path class="cls-6" d="M169.89,178.36l-11.59,85.11c-1.4,3.45-14.53,3.14-18.21,4.31l12.25-86.44,17.55-2.98Z"/><path class="cls-35" d="M210.3,336.67c1.54-.02,3.09.02,4.64,0l-7.62,55.97c-.22,1.83-12.34,3.16-12.58,1.99l3.31-21.86c-17.69-4.97-9.35,17.27-13.91,23.18-1.41,1.83-8.66,1.02-10.93,2.32l8.28-57.29,11.92-1.32-3.31,21.86c16.13,7.39,10.08-20.62,13.91-23.84.24-.2,5.82-.99,6.29-.99Z"/><path class="cls-24" d="M338.13,255.2c.79,0,3.25-.27,3.64.33,1.48,2.23-8.64,46.39-7.95,52.99-.7,1.93-10.1,2.79-11.26,1.99s-5.16-24.27-6.95-27.49c-1.44.22-2.75,26.8-4.31,28.81-1.24,1.61-8.76,1.58-10.93,1.66l8.28-53.32c.95-1.48,10.67-2.98,11.92-1.99,1.12.88,4.15,22.01,6.29,24.84,1.41-3.68,2.96-24.52,4.31-26.16.48-.59,6.2-1.65,6.95-1.66Z"/><path class="cls-38" d="M299.72,260.5c.98,0,3.1-.55,2.98.99.15,1.34-13.6,20.48-13.91,23.18-.49,4.39,7.42,26.29,5.96,29.14-.35.69-10.82,2.35-11.26,1.99-1.14-.92-4.06-20.37-6.29-20.2-4.56,11.13,1.99,24.19-15.23,22.52l7.62-52.66c1.14-1.63,11.16-2.91,11.92-1.99l-2.32,19.54c6.84-9.7,6.42-22.53,20.53-22.52Z"/><path class="cls-40" d="M247.39,332.03c.74.01,2.55-.28,2.98.33,1.12,15.79-8.54,8.48-15.57,11.59-1.14.5-2.78,12.58-1.99,13.25l11.59-.99c1.51,15.5-8.91,8.2-13.58,11.59-1.31.95-2.59,12.82-1.99,13.25l13.91-1.32c1.67.69.01,9.16-.33,9.6-1.74,2.25-23.49,2.22-27.49,4.31l8.28-57.96c.75-.97,22-3.67,24.18-3.64Z"/><path class="cls-38" d="M189.1,274.4c.76.01,2.52-.28,2.98.33.74,15.01-8.7,7.86-14.9,10.93-1.35.67-2.86,10.64-1.99,11.26l9.6-.99c1.93,14.37-5,8.31-10.93,10.93-1.11.49-3.24,11.71-1.32,12.58l11.92-1.32c1.23.42-.07,8.56-.33,8.94-1.01,1.46-20.95,2.59-24.18,3.64l6.29-51.99c.69-1.15,20.25-4.34,22.85-4.31Z"/><path class="cls-3" d="M249.38,266.46l.66,1.32-17.55,34.11c-.49,2.58-1.92,18.27-2.65,19.21-.69.89-8.52,1.14-10.27,1.66-1.03-7.68,2.83-15.15,2.32-22.85-.28-4.29-7.28-26.26-5.96-28.48l12.58-1.32,1.66,16.89c6.92-9.01,4.81-21.16,19.21-20.53Z"/><path class="cls-16" d="M193.41,296.92c4.75-2.88,5.16.68,5.63.66,1.68-.05,4.85-4.36,6.29-5.3-1.12,7.61-2.47,15.19-3.31,22.85l12.25-.99c1.46.5-.32,8.93-.66,9.27-.85.87-21.13,2.72-24.18,2.98,1.44-9.78,2.34-19.74,3.97-29.47Z"/><path class="cls-27" d="M205.33,292.29c-1.44.94-4.61,5.25-6.29,5.3-.47.01-.88-3.54-5.63-.66.59-3.54,3.26-23.16,4.97-23.84.48-.19,9.94-.73,10.27-.33-.78,6.56-2.36,13.03-3.31,19.54Z"/><path class="cls-6" d="M416.29,214.79c1.17,0,2.63-.26,3.64.33.45.63-1.49,14.65-1.99,15.23-.97,1.15-11.94,1.82-14.24,2.32-1.07-.36,1.22-14.92,1.66-15.57.5-.74,9.75-2.32,10.93-2.32Z"/><path class="cls-6" d="M377.87,149.88c4,.09,11.4,2.31,12.92,6.29,1.7,4.49-2.7,33.43-5.3,38.42-1.11,2.13-8.49,8.65-8.61,9.27-.57,3.05,7.32,29.07,6.62,31.13l-18.21,2.98c-2.05-3.45-4.55-27.82-5.63-28.81-.46-.42-4.54-.55-4.97-.33-2.04,1.06-3.08,28.12-4.97,30.8-1.38,1.95-14.44,2.56-17.55,2.98l12.25-87.76c1.03-1.34,30.47-5.04,33.45-4.97Z"/><path class="cls-13" d="M367.94,166.44c6.36.99,4.25,16.68,2.32,20.86-2.35,5.11-8.25,5.36-12.92,6.29-1.21-.38,1.72-23.73,2.32-24.84s7.68-2.41,8.28-2.32Z"/><path class="cls-12" d="M404.7,102.86l5.63,11.92,6.95-9.27c-8.08,28.55-46.52,41.73-73.19,33.12-.49-.16-2.85-1.46-.33-1.32.87.31,5.65,1.7,5.96.99-3.35-3.19-7.02-6.67-7.29-11.59.23-.08,2.49-1.95,2.65-1.99.87-.23,2.03-.86,2.65-.33,1.61,5.29,6.14,15.19,12.25,16.23,9.61,1.63,30.77-6.38,38.42-12.58,12.56-10.2,2.97-11.19-.99-23.51.69-2.06,6.32-1.39,7.29-1.66Z"/><path class="cls-1" d="M410.66,92.26l-10.27-1.99c-1.36,2.28,3.82,10.38,3.64,10.93s-6.54,3.18-8.61-1.32c-4.68-10.17,1.77-11.59-16.23-8.94-8.37,1.23-30.1,11.66-33.45,19.54-2.42,5.69,3.52,10.71-.66,13.58-.47.33-2.65,1.46-2.98,1.32-7.64-12.43,14.58-28.5,24.51-32.46,11.14-4.44,33.5-6.76,44.05-.66Z"/><path class="cls-9" d="M417.28,99.54c2.72,1.95.59,3.89,0,5.96l-6.95,9.27-5.63-11.92c4.16-1.16,8.21-2.85,12.58-3.31Z"/><path class="cls-21" d="M342.44,126.7c.27,4.92,3.94,8.4,7.29,11.59-.32.7-5.09-.68-5.96-.99-.95-.34-4.33-3.06-5.3-3.64s-.61,1.26-.99.99c-3.29-2.32.37-3.72-2.32-4.97,2.34-2.55,4.92-2.13,7.29-2.98Z"/><path class="cls-23" d="M339.46,115.44c.29,1.03-2.73,7.45-3.31,7.29-.17-2.58,1.47-5.56,3.31-7.29Z"/><path class="cls-14" d="M410.66,92.26c4.5,2.6,3.55,4.06,6.62,7.29-4.37.46-8.43,2.16-12.58,3.31-.96.27-6.6-.41-7.29,1.66,3.97,12.33,13.55,13.32.99,23.51-7.64,6.21-28.8,14.21-38.42,12.58-6.12-1.04-10.64-10.94-12.25-16.23-.62-.53-1.78.1-2.65.33v-.66c4.18-2.87-1.76-7.89.66-13.58,3.35-7.88,25.08-18.31,33.45-19.54,17.99-2.65,11.55-1.23,16.23,8.94,2.07,4.5,8.44,1.85,8.61,1.32s-5-8.65-3.64-10.93l10.27,1.99Z"/><path class="cls-25" d="M384.5,102.19c1.46,0,7.11,13.81,3.31,13.91-2.07.06-2.27-5.6-4.64-5.3l-1.66.99c1.33,13.24-3.66,1.82-4.97,1.66-5.58-.7.37,6.87-2.65,7.95-9.47-12.12-4.99,1.39-7.29,1.99-1.9.5-2.2-4.5-3.97-4.64-3.77-.29-.09,6.08-3.31,7.29l-3.64-9.6c2.43-2.98,3.52,2.15,6.29.33-.05-13.52,2.52-3.03,3.97-2.65,5.12,1.34,1.08-6.71,3.31-7.29l3.31,4.64c7.26.35.16-6.12,3.31-7.29,2.77-1.03,3.16,5.07,3.97,5.3,3.79,1.08,2.57-7.28,4.64-7.29Z"/><polygon class="cls-28" points="391.78 105.5 392.78 106.5 389.8 108.15 391.78 105.5"/><path class="cls-22" d="M419.93,364.49c.24.4,0,7.82,0,9.27-10.04,1.56-18.35,2.45-21.2-8.94.42-.97,20.41-1.62,21.2-.33Z"/><path class="cls-41" d="M414.63,362.5c-2.1.32-14.55,1.14-15.57.66-.73-.35-5.07-14.26-4.31-15.23,2.31,3.94,11.06,13.96,16.23,11.26l-1.99-16.56c1.58,2.05,3.01,15.69,3.64,16.23.57.47,16.74,1.42,1.99,3.64Z"/><path class="cls-19" d="M417.28,336c5.58,2.61-4.56,3.25-6.29,3.97-3.86,1.62-11.62,5.08-14.9,7.29-.25-1.13-1.75-1.08-.99-2.65,1.33-2.77,18.23-8.6,22.19-8.61Z"/><path class="cls-17" d="M423.58,359.19c.5-.39,2.67.1,2.98.99,1.18,3.35-6.19,1.5-2.98-.99Z"/><path class="cls-20" d="M411.32,329.38c.82.58,3.21,3.81,3.97,1.99,2.19,2.51,4.65,2.01-.66,3.97-3.59-.1-19.69,5.12-22.19,7.29-1.2,1.04-4.68,8.29-5.63,10.27l5.63-6.95,4.31,16.23-11.26.99c.37-5.67-7.49-5.86-8.61-2.32-1.56,4.95,4.99,8.03,7.95,3.64,17.06-2.05,10.12,2.29,15.23,8.28,2.56,3,15.84,3.57,19.87,2.98.86-.13,2.83.35,3.31-.33l.33-11.59c3.63-1.33,3.01,13.29,0,14.57-1.92.82-15.44.45-17.88,0-3-.56-10.59-4.7-11.26-4.64-.88.08-6.57,4.77-8.61,5.3-11.21,2.93-23.89-5.69-25.5-16.56-4.57-30.93,24.6-52,51-33.12Z"/><path class="cls-26" d="M414.63,335.34c1.49.04,1.4.08,2.65.66-3.96.01-20.86,5.84-22.19,8.61-.75,1.57.74,1.52.99,2.65-.25.16-1.39-.39-1.32.66-.76.97,3.57,14.89,4.31,15.23,1.02.48,13.46-.35,15.57-.66,1.39,1.81,5.55-.78,5.3,1.99-.79-1.29-20.78-.64-21.2.33,2.84,11.4,11.16,10.5,21.2,8.94v1.99c-4.03.59-17.31.02-19.87-2.98-5.11-5.99,1.83-10.33-15.23-8.28.22-.33.64-.97.66-1.32l11.26-.99-4.31-16.23-5.63,6.95c.95-1.98,4.43-9.23,5.63-10.27,2.5-2.17,18.6-7.38,22.19-7.29Z"/><path class="cls-32" d="M411.98,328.72l-.66.66c-26.4-18.88-55.57,2.19-51,33.12-11.14-30.97,26.4-54.85,51.66-33.78Z"/><path class="cls-4" d="M415.3,331.37c-.76,1.82-3.16-1.4-3.97-1.99l.66-.66c1.29,1.07,1.77.88,3.31,2.65Z"/><path class="cls-30" d="M385.49,363.16c-.02.35-.44,1-.66,1.32-2.96,4.39-9.51,1.3-7.95-3.64,1.12-3.55,8.98-3.35,8.61,2.32Z"/><path class="cls-10" d="M368.6,369.12c5.51,6.14,13.05,7.27,20.86,6.29-6.73,2.32-18.31,1.56-20.86-6.29Z"/><path class="cls-37" d="M387.81,323.42c1.2-.14,4.5-.44,5.3.66l-16.23,3.64c2.7-1.95,7.73-3.94,10.93-4.31Z"/><path class="cls-7" d="M273.22,328.72c4.69-.15,14.01-.45,15.57,5.63.73,2.84-1.98,18.97-3.31,21.86s-6.49,6.17-6.62,6.62c-.69,2.37,4.06,19.98,3.31,21.86-.34.86-11.46,2.37-11.92,1.99-.99-.81-2.18-31.18-7.29-16.56-3.89,11.15,4.21,19.63-14.24,19.54l8.28-57.96c.59-.88,14.39-2.92,16.23-2.98Z"/><path class="cls-34" d="M272.56,339.32c7.51.66,3.09,20.75-6.62,17.88-1.09-.31,1.16-15.58,1.66-16.23.56-.73,4.71-1.68,4.97-1.66Z"/><path class="cls-11" d="M75.84,287.65c19.19-.74,14.73,18.36,3.64,25.5,7.11,3.15,5.7,13.38,3.31,19.21-4.8,11.73-21.11,10.42-31.46,12.25,1.11-6.92,6.07-51.28,8.28-53.98.52-.64,14.56-2.92,16.23-2.98Z"/><path class="cls-2" d="M66.57,320.11c10.77-4.77,9.46,12.56,1.99,13.91-1.06.19-4.53.3-4.97-.99-.21-.63,2.29-12.61,2.98-12.92Z"/><path class="cls-8" d="M73.19,297.59c8.81-.38,3.61,16.27-5.3,13.25.19-4.46-.62-12.99,5.3-13.25Z"/><path class="cls-15" d="M146.05,279.7c4.63-.19,12.22-.64,13.58,5.63.73,3.35-.64,15.88-1.99,19.21-1.72,4.25-7.04,6.68-7.29,7.29-1.12,2.83,3.64,17.55,2.65,19.21-1.75.7-10.27,2.39-11.26,1.32-.6-.65-1.31-13.26-1.99-15.23-3.52-10.24-4.74,14.96-5.3,15.9-1.13,1.89-8.7,1.64-10.93,2.32l7.62-52.66c.45-.76,13.26-2.91,14.9-2.98Z"/><path class="cls-8" d="M141.41,290.96c11.77-5.18,6.99,18.95-1.99,15.23-1.35-.56,1.09-14.84,1.99-15.23Z"/><path class="cls-3" d="M112.93,283.68c1.07-.03,5.21-.26,5.63.33l.66,51c-16.38,7.26-9.1-5.49-12.25-6.95-11.42-2.05-8.14,8.48-11.26,10.6-.44.3-10.14,1.59-10.6,1.32l18.55-54.98c2.86.38,6.67-1.24,9.27-1.32Z"/><path class="cls-39" d="M108.29,298.25c-.1,4.64,3.42,25.92-5.96,21.86-1.91-.83,5.02-19.31,5.96-21.86Z"/><path class="cls-33" d="M376.22,271.76c-1.45,17.25-4.2,39.72-27.49,36.43-11.6-1.64-7.19-16.77-6.29-24.51,2.21,5.19,8.59.06,11.26-2.65-.76,5.47-5.58,22.5,5.63,16.56,3.2-1.7,5.3-20.2,5.63-24.51l11.26-1.32Z"/><path class="cls-36" d="M376.22,271.76l-11.26,1.32c.24-3.13,1.18-6.34.66-9.6-10.92-5.79-10.94,10.51-11.92,17.55-2.67,2.71-9.05,7.84-11.26,2.65,1.24-10.65,2.42-26.44,14.24-30.47,18.4-6.27,20.81,3.39,19.54,18.55Z"/><path class="cls-31" d="M364.96,273.08c-.33,4.3-2.43,22.81-5.63,24.51-11.21,5.94-6.39-11.09-5.63-16.56.98-7.04,1-23.34,11.92-17.55.51,3.26-.42,6.47-.66,9.6Z"/><path class="cls-5" d="M222.55,128.69c-4.64,8.5-13.9,6.83-22.52,8.61C233.34,55.79,139.06-16.95,68.88,37.61l19.87,19.54c-4.06,3.74-10.08,9.06-14.57,13.25l-19.87-18.21c-28.62,38.48-21.37,96.06,21.2,120.88-.67.87-1.2,4.24-3.64,5.3-5.73,1.92-13.89,1.21-18.88,1.99C-21.28,114.63,30.07-5.42,129.49.19c64.18,3.62,110.53,66.27,93.06,128.5Z"/><path class="cls-18" d="M145.72,113.45l28.48,28.48c-8.12,1.56-16.41,3.01-24.51,4.64l-23.18-25.83c3.64-1.73,15.84-7.18,19.21-7.29Z"/></g></g></svg>